<?xml version="1.0"?>
<!-- Created by MetaPost 2.01 on 2022.09.06:1302 -->
<svg version="1.1" xmlns="http://www.w3.org/2000/svg" xmlns:xlink="http://www.w3.org/1999/xlink" width="460.223877" height="127.772736" viewBox="0 0 460.223877 127.772736">
<!-- Original BoundingBox: -49.294617 -60.911407 410.929260 66.861328 -->
  <defs>
    <g transform="scale(0.009963,0.009963)" id="GLYPHcmr10_19">
      <path style="fill-rule: evenodd;" d="M375.000000 -632.000000C384.000000 -639.000000,392.000000 -650.000000,392.000000 -662.000000C392.000000 -680.000000,374.000000 -698.000000,356.000000 -698.000000C341.000000 -698.000000,330.000000 -687.000000,326.000000 -681.000000L206.000000 -528.000000L223.000000 -510.000000"></path>
    </g>
    <g transform="scale(0.009963,0.009963)" id="GLYPHcmr10_65">
      <path style="fill-rule: evenodd;" d="M398.000000 -696.000000C393.000000 -709.000000,391.000000 -716.000000,375.000000 -716.000000C359.000000 -716.000000,356.000000 -710.000000,351.000000 -696.000000L144.000000 -98.000000C126.000000 -47.000000,86.000000 -32.000000,32.000000 -31.000000L32.000000 -0.000000C55.000000 -1.000000,98.000000 -3.000000,134.000000 -3.000000C165.000000 -3.000000,217.000000 -1.000000,249.000000 -0.000000L249.000000 -31.000000C199.000000 -31.000000,174.000000 -56.000000,174.000000 -82.000000C174.000000 -85.000000,175.000000 -95.000000,176.000000 -97.000000L222.000000 -228.000000L469.000000 -228.000000L522.000000 -75.000000C523.000000 -71.000000,525.000000 -65.000000,525.000000 -61.000000C525.000000 -31.000000,469.000000 -31.000000,442.000000 -31.000000L442.000000 -0.000000C478.000000 -3.000000,548.000000 -3.000000,586.000000 -3.000000C629.000000 -3.000000,675.000000 -2.000000,717.000000 -0.000000L717.000000 -31.000000L699.000000 -31.000000C639.000000 -31.000000,625.000000 -38.000000,614.000000 -71.000000M345.000000 -584.000000L458.000000 -259.000000L233.000000 -259.000000"></path>
    </g>
    <g transform="scale(0.009963,0.009963)" id="GLYPHcmr10_67">
      <path style="fill-rule: evenodd;" d="M56.000000 -342.000000C56.000000 -135.000000,218.000000 22.000000,404.000000 22.000000C567.000000 22.000000,665.000000 -117.000000,665.000000 -233.000000C665.000000 -243.000000,665.000000 -250.000000,652.000000 -250.000000C641.000000 -250.000000,641.000000 -244.000000,640.000000 -234.000000C632.000000 -91.000000,525.000000 -9.000000,416.000000 -9.000000C355.000000 -9.000000,159.000000 -43.000000,159.000000 -341.000000C159.000000 -640.000000,354.000000 -674.000000,415.000000 -674.000000C524.000000 -674.000000,613.000000 -583.000000,633.000000 -437.000000C635.000000 -423.000000,635.000000 -420.000000,649.000000 -420.000000C665.000000 -420.000000,665.000000 -423.000000,665.000000 -444.000000L665.000000 -681.000000C665.000000 -698.000000,665.000000 -705.000000,654.000000 -705.000000C650.000000 -705.000000,646.000000 -705.000000,638.000000 -693.000000L588.000000 -619.000000C551.000000 -655.000000,500.000000 -705.000000,404.000000 -705.000000C217.000000 -705.000000,56.000000 -546.000000,56.000000 -342.000000"></path>
    </g>
    <g transform="scale(0.009963,0.009963)" id="GLYPHcmr10_68">
      <path style="fill-rule: evenodd;" d="M35.000000 -683.000000L35.000000 -652.000000L59.000000 -652.000000C136.000000 -652.000000,138.000000 -641.000000,138.000000 -605.000000L138.000000 -78.000000C138.000000 -42.000000,136.000000 -31.000000,59.000000 -31.000000L35.000000 -31.000000L35.000000 -0.000000L401.000000 -0.000000C569.000000 -0.000000,707.000000 -148.000000,707.000000 -336.000000C707.000000 -526.000000,572.000000 -683.000000,401.000000 -683.000000M273.000000 -31.000000C226.000000 -31.000000,224.000000 -38.000000,224.000000 -71.000000L224.000000 -612.000000C224.000000 -645.000000,226.000000 -652.000000,273.000000 -652.000000L373.000000 -652.000000C435.000000 -652.000000,504.000000 -630.000000,555.000000 -559.000000C598.000000 -500.000000,607.000000 -414.000000,607.000000 -336.000000C607.000000 -225.000000,588.000000 -165.000000,552.000000 -116.000000C532.000000 -89.000000,475.000000 -31.000000,374.000000 -31.000000"></path>
    </g>
    <g transform="scale(0.009963,0.009963)" id="GLYPHcmr10_69">
      <path style="fill-rule: evenodd;" d="M136.000000 -78.000000C136.000000 -42.000000,134.000000 -31.000000,57.000000 -31.000000L33.000000 -31.000000L33.000000 -0.000000L610.000000 -0.000000L652.000000 -258.000000L627.000000 -258.000000C602.000000 -104.000000,579.000000 -31.000000,407.000000 -31.000000L274.000000 -31.000000C227.000000 -31.000000,225.000000 -38.000000,225.000000 -71.000000L225.000000 -338.000000L315.000000 -338.000000C412.000000 -338.000000,423.000000 -306.000000,423.000000 -221.000000L448.000000 -221.000000L448.000000 -486.000000L423.000000 -486.000000C423.000000 -400.000000,412.000000 -369.000000,315.000000 -369.000000L225.000000 -369.000000L225.000000 -609.000000C225.000000 -642.000000,227.000000 -649.000000,274.000000 -649.000000L403.000000 -649.000000C556.000000 -649.000000,583.000000 -594.000000,599.000000 -455.000000L624.000000 -455.000000L596.000000 -680.000000L33.000000 -680.000000L33.000000 -649.000000L57.000000 -649.000000C134.000000 -649.000000,136.000000 -638.000000,136.000000 -602.000000"></path>
    </g>
    <g transform="scale(0.009963,0.009963)" id="GLYPHcmr10_72">
      <path style="fill-rule: evenodd;" d="M613.000000 -605.000000C613.000000 -641.000000,615.000000 -652.000000,692.000000 -652.000000L716.000000 -652.000000L716.000000 -683.000000C681.000000 -680.000000,607.000000 -680.000000,569.000000 -680.000000C531.000000 -680.000000,456.000000 -680.000000,421.000000 -683.000000L421.000000 -652.000000L445.000000 -652.000000C522.000000 -652.000000,524.000000 -641.000000,524.000000 -605.000000L524.000000 -371.000000L225.000000 -371.000000L225.000000 -605.000000C225.000000 -641.000000,227.000000 -652.000000,304.000000 -652.000000L328.000000 -652.000000L328.000000 -683.000000C293.000000 -680.000000,219.000000 -680.000000,181.000000 -680.000000C143.000000 -680.000000,68.000000 -680.000000,33.000000 -683.000000L33.000000 -652.000000L57.000000 -652.000000C134.000000 -652.000000,136.000000 -641.000000,136.000000 -605.000000L136.000000 -78.000000C136.000000 -42.000000,134.000000 -31.000000,57.000000 -31.000000L33.000000 -31.000000L33.000000 -0.000000C68.000000 -3.000000,142.000000 -3.000000,180.000000 -3.000000C218.000000 -3.000000,293.000000 -3.000000,328.000000 -0.000000L328.000000 -31.000000L304.000000 -31.000000C227.000000 -31.000000,225.000000 -42.000000,225.000000 -78.000000L225.000000 -340.000000L524.000000 -340.000000L524.000000 -78.000000C524.000000 -42.000000,522.000000 -31.000000,445.000000 -31.000000L421.000000 -31.000000L421.000000 -0.000000C456.000000 -3.000000,530.000000 -3.000000,568.000000 -3.000000C606.000000 -3.000000,681.000000 -3.000000,716.000000 -0.000000L716.000000 -31.000000L692.000000 -31.000000C615.000000 -31.000000,613.000000 -42.000000,613.000000 -78.000000"></path>
    </g>
    <g transform="scale(0.009963,0.009963)" id="GLYPHcmr10_73">
      <path style="fill-rule: evenodd;" d="M225.000000 -605.000000C225.000000 -641.000000,228.000000 -652.000000,307.000000 -652.000000L333.000000 -652.000000L333.000000 -683.000000C298.000000 -680.000000,219.000000 -680.000000,181.000000 -680.000000C142.000000 -680.000000,63.000000 -680.000000,28.000000 -683.000000L28.000000 -652.000000L54.000000 -652.000000C133.000000 -652.000000,136.000000 -641.000000,136.000000 -605.000000L136.000000 -78.000000C136.000000 -42.000000,133.000000 -31.000000,54.000000 -31.000000L28.000000 -31.000000L28.000000 -0.000000C63.000000 -3.000000,142.000000 -3.000000,180.000000 -3.000000C219.000000 -3.000000,298.000000 -3.000000,333.000000 -0.000000L333.000000 -31.000000L307.000000 -31.000000C228.000000 -31.000000,225.000000 -42.000000,225.000000 -78.000000"></path>
    </g>
    <g transform="scale(0.009963,0.009963)" id="GLYPHcmr10_77">
      <path style="fill-rule: evenodd;" d="M241.000000 -661.000000C232.000000 -683.000000,229.000000 -683.000000,206.000000 -683.000000L37.000000 -683.000000L37.000000 -652.000000L61.000000 -652.000000C138.000000 -652.000000,140.000000 -641.000000,140.000000 -605.000000L140.000000 -105.000000C140.000000 -78.000000,140.000000 -31.000000,37.000000 -31.000000L37.000000 -0.000000C72.000000 -1.000000,121.000000 -3.000000,154.000000 -3.000000C187.000000 -3.000000,236.000000 -1.000000,271.000000 -0.000000L271.000000 -31.000000C168.000000 -31.000000,168.000000 -78.000000,168.000000 -105.000000L168.000000 -644.000000L169.000000 -644.000000L410.000000 -22.000000C415.000000 -9.000000,420.000000 -0.000000,430.000000 -0.000000C441.000000 -0.000000,444.000000 -8.000000,448.000000 -19.000000L694.000000 -652.000000L695.000000 -652.000000L695.000000 -78.000000C695.000000 -42.000000,693.000000 -31.000000,616.000000 -31.000000L592.000000 -31.000000L592.000000 -0.000000C629.000000 -3.000000,697.000000 -3.000000,736.000000 -3.000000C775.000000 -3.000000,842.000000 -3.000000,879.000000 -0.000000L879.000000 -31.000000L855.000000 -31.000000C778.000000 -31.000000,776.000000 -42.000000,776.000000 -78.000000L776.000000 -605.000000C776.000000 -641.000000,778.000000 -652.000000,855.000000 -652.000000L879.000000 -652.000000L879.000000 -683.000000L710.000000 -683.000000C684.000000 -683.000000,684.000000 -682.000000,677.000000 -664.000000L458.000000 -101.000000"></path>
    </g>
    <g transform="scale(0.009963,0.009963)" id="GLYPHcmr10_80">
      <path style="fill-rule: evenodd;" d="M227.000000 -316.000000L396.000000 -316.000000C516.000000 -316.000000,624.000000 -397.000000,624.000000 -497.000000C624.000000 -595.000000,525.000000 -683.000000,388.000000 -683.000000L35.000000 -683.000000L35.000000 -652.000000L59.000000 -652.000000C136.000000 -652.000000,138.000000 -641.000000,138.000000 -605.000000L138.000000 -78.000000C138.000000 -42.000000,136.000000 -31.000000,59.000000 -31.000000L35.000000 -31.000000L35.000000 -0.000000C70.000000 -3.000000,144.000000 -3.000000,182.000000 -3.000000C220.000000 -3.000000,295.000000 -3.000000,330.000000 -0.000000L330.000000 -31.000000L306.000000 -31.000000C229.000000 -31.000000,227.000000 -42.000000,227.000000 -78.000000M224.000000 -342.000000L224.000000 -612.000000C224.000000 -645.000000,226.000000 -652.000000,273.000000 -652.000000L362.000000 -652.000000C521.000000 -652.000000,521.000000 -546.000000,521.000000 -497.000000C521.000000 -450.000000,521.000000 -342.000000,362.000000 -342.000000"></path>
    </g>
    <g transform="scale(0.009963,0.009963)" id="GLYPHcmr10_83">
      <path style="fill-rule: evenodd;" d="M349.000000 -388.000000L221.000000 -419.000000C159.000000 -434.000000,120.000000 -488.000000,120.000000 -546.000000C120.000000 -616.000000,174.000000 -677.000000,252.000000 -677.000000C419.000000 -677.000000,441.000000 -513.000000,447.000000 -468.000000C448.000000 -462.000000,448.000000 -456.000000,459.000000 -456.000000C472.000000 -456.000000,472.000000 -461.000000,472.000000 -480.000000L472.000000 -681.000000C472.000000 -698.000000,472.000000 -705.000000,461.000000 -705.000000C454.000000 -705.000000,453.000000 -704.000000,446.000000 -692.000000L411.000000 -635.000000C381.000000 -664.000000,340.000000 -705.000000,251.000000 -705.000000C140.000000 -705.000000,56.000000 -617.000000,56.000000 -511.000000C56.000000 -428.000000,109.000000 -355.000000,187.000000 -328.000000C198.000000 -324.000000,249.000000 -312.000000,319.000000 -295.000000C346.000000 -288.000000,376.000000 -281.000000,404.000000 -244.000000C425.000000 -218.000000,435.000000 -185.000000,435.000000 -152.000000C435.000000 -81.000000,385.000000 -9.000000,301.000000 -9.000000C272.000000 -9.000000,196.000000 -14.000000,143.000000 -63.000000C85.000000 -117.000000,82.000000 -181.000000,81.000000 -217.000000C80.000000 -227.000000,72.000000 -227.000000,69.000000 -227.000000C56.000000 -227.000000,56.000000 -220.000000,56.000000 -202.000000L56.000000 -2.000000C56.000000 15.000000,56.000000 22.000000,67.000000 22.000000C74.000000 22.000000,75.000000 20.000000,82.000000 9.000000C82.000000 8.000000,85.000000 5.000000,118.000000 -48.000000C149.000000 -14.000000,213.000000 22.000000,302.000000 22.000000C419.000000 22.000000,499.000000 -76.000000,499.000000 -186.000000C499.000000 -286.000000,433.000000 -368.000000,349.000000 -388.000000"></path>
    </g>
    <g transform="scale(0.009963,0.009963)" id="GLYPHcmr10_84">
      <path style="fill-rule: evenodd;" d="M666.000000 -677.000000L55.000000 -677.000000L36.000000 -452.000000L61.000000 -452.000000C75.000000 -613.000000,90.000000 -646.000000,241.000000 -646.000000C259.000000 -646.000000,285.000000 -646.000000,295.000000 -644.000000C316.000000 -640.000000,316.000000 -629.000000,316.000000 -606.000000L316.000000 -79.000000C316.000000 -45.000000,316.000000 -31.000000,211.000000 -31.000000L171.000000 -31.000000L171.000000 -0.000000C212.000000 -3.000000,314.000000 -3.000000,360.000000 -3.000000C406.000000 -3.000000,509.000000 -3.000000,550.000000 -0.000000L550.000000 -31.000000L510.000000 -31.000000C405.000000 -31.000000,405.000000 -45.000000,405.000000 -79.000000L405.000000 -606.000000C405.000000 -626.000000,405.000000 -640.000000,423.000000 -644.000000C434.000000 -646.000000,461.000000 -646.000000,480.000000 -646.000000C631.000000 -646.000000,646.000000 -613.000000,660.000000 -452.000000L685.000000 -452.000000"></path>
    </g>
    <g transform="scale(0.009963,0.009963)" id="GLYPHcmr10_97">
      <path style="fill-rule: evenodd;" d="M333.000000 -76.000000C337.000000 -36.000000,364.000000 6.000000,411.000000 6.000000C432.000000 6.000000,493.000000 -8.000000,493.000000 -89.000000L493.000000 -145.000000L468.000000 -145.000000L468.000000 -89.000000C468.000000 -31.000000,443.000000 -25.000000,432.000000 -25.000000C399.000000 -25.000000,395.000000 -70.000000,395.000000 -75.000000L395.000000 -275.000000C395.000000 -317.000000,395.000000 -356.000000,359.000000 -393.000000C320.000000 -432.000000,270.000000 -448.000000,222.000000 -448.000000C140.000000 -448.000000,71.000000 -401.000000,71.000000 -335.000000C71.000000 -305.000000,91.000000 -288.000000,117.000000 -288.000000C145.000000 -288.000000,163.000000 -308.000000,163.000000 -334.000000C163.000000 -346.000000,158.000000 -379.000000,112.000000 -380.000000C139.000000 -415.000000,188.000000 -426.000000,220.000000 -426.000000C269.000000 -426.000000,326.000000 -387.000000,326.000000 -298.000000L326.000000 -261.000000C275.000000 -258.000000,205.000000 -255.000000,142.000000 -225.000000C67.000000 -191.000000,42.000000 -139.000000,42.000000 -95.000000C42.000000 -14.000000,139.000000 11.000000,202.000000 11.000000C268.000000 11.000000,314.000000 -29.000000,333.000000 -76.000000M326.000000 -240.000000L326.000000 -140.000000C326.000000 -45.000000,254.000000 -11.000000,209.000000 -11.000000C160.000000 -11.000000,119.000000 -46.000000,119.000000 -96.000000C119.000000 -151.000000,161.000000 -234.000000,326.000000 -240.000000"></path>
    </g>
    <g transform="scale(0.009963,0.009963)" id="GLYPHcmr10_99">
      <path style="fill-rule: evenodd;" d="M117.000000 -218.000000C117.000000 -381.000000,199.000000 -423.000000,252.000000 -423.000000C261.000000 -423.000000,324.000000 -422.000000,359.000000 -386.000000C318.000000 -383.000000,312.000000 -353.000000,312.000000 -340.000000C312.000000 -314.000000,330.000000 -294.000000,358.000000 -294.000000C384.000000 -294.000000,404.000000 -311.000000,404.000000 -341.000000C404.000000 -409.000000,328.000000 -448.000000,251.000000 -448.000000C126.000000 -448.000000,34.000000 -340.000000,34.000000 -216.000000C34.000000 -88.000000,133.000000 11.000000,249.000000 11.000000C383.000000 11.000000,415.000000 -109.000000,415.000000 -119.000000C415.000000 -129.000000,405.000000 -129.000000,402.000000 -129.000000C393.000000 -129.000000,391.000000 -125.000000,389.000000 -119.000000C360.000000 -26.000000,295.000000 -14.000000,258.000000 -14.000000C205.000000 -14.000000,117.000000 -57.000000,117.000000 -218.000000"></path>
    </g>
    <g transform="scale(0.009963,0.009963)" id="GLYPHcmr10_100">
      <path style="fill-rule: evenodd;" d="M380.000000 -55.000000L380.000000 11.000000L527.000000 -0.000000L527.000000 -31.000000C457.000000 -31.000000,449.000000 -38.000000,449.000000 -87.000000L449.000000 -694.000000L305.000000 -683.000000L305.000000 -652.000000C375.000000 -652.000000,383.000000 -645.000000,383.000000 -596.000000L383.000000 -380.000000C354.000000 -416.000000,311.000000 -442.000000,257.000000 -442.000000C139.000000 -442.000000,34.000000 -344.000000,34.000000 -215.000000C34.000000 -88.000000,132.000000 11.000000,246.000000 11.000000C310.000000 11.000000,355.000000 -23.000000,380.000000 -55.000000M380.000000 -323.000000L380.000000 -118.000000C380.000000 -100.000000,380.000000 -98.000000,369.000000 -81.000000C339.000000 -33.000000,294.000000 -11.000000,251.000000 -11.000000C206.000000 -11.000000,170.000000 -37.000000,146.000000 -75.000000C120.000000 -116.000000,117.000000 -173.000000,117.000000 -214.000000C117.000000 -251.000000,119.000000 -311.000000,148.000000 -356.000000C169.000000 -387.000000,207.000000 -420.000000,261.000000 -420.000000C296.000000 -420.000000,338.000000 -405.000000,369.000000 -360.000000C380.000000 -343.000000,380.000000 -341.000000,380.000000 -323.000000"></path>
    </g>
    <g transform="scale(0.009963,0.009963)" id="GLYPHcmr10_101">
      <path style="fill-rule: evenodd;" d="M112.000000 -252.000000C118.000000 -401.000000,202.000000 -426.000000,236.000000 -426.000000C339.000000 -426.000000,349.000000 -291.000000,349.000000 -252.000000M111.000000 -231.000000L390.000000 -231.000000C412.000000 -231.000000,415.000000 -231.000000,415.000000 -252.000000C415.000000 -351.000000,361.000000 -448.000000,236.000000 -448.000000C120.000000 -448.000000,28.000000 -345.000000,28.000000 -220.000000C28.000000 -86.000000,133.000000 11.000000,248.000000 11.000000C370.000000 11.000000,415.000000 -100.000000,415.000000 -119.000000C415.000000 -129.000000,407.000000 -131.000000,402.000000 -131.000000C393.000000 -131.000000,391.000000 -125.000000,389.000000 -117.000000C354.000000 -14.000000,264.000000 -14.000000,254.000000 -14.000000C204.000000 -14.000000,164.000000 -44.000000,141.000000 -81.000000C111.000000 -129.000000,111.000000 -195.000000,111.000000 -231.000000"></path>
    </g>
    <g transform="scale(0.009963,0.009963)" id="GLYPHcmr10_103">
      <path style="fill-rule: evenodd;" d="M222.000000 -172.000000C135.000000 -172.000000,135.000000 -272.000000,135.000000 -295.000000C135.000000 -322.000000,136.000000 -354.000000,151.000000 -379.000000C159.000000 -391.000000,182.000000 -419.000000,222.000000 -419.000000C309.000000 -419.000000,309.000000 -319.000000,309.000000 -296.000000C309.000000 -269.000000,308.000000 -237.000000,293.000000 -212.000000C285.000000 -200.000000,262.000000 -172.000000,222.000000 -172.000000M106.000000 -133.000000C106.000000 -137.000000,106.000000 -160.000000,123.000000 -180.000000C162.000000 -152.000000,203.000000 -149.000000,222.000000 -149.000000C315.000000 -149.000000,384.000000 -218.000000,384.000000 -295.000000C384.000000 -332.000000,368.000000 -369.000000,343.000000 -392.000000C379.000000 -426.000000,415.000000 -431.000000,433.000000 -431.000000C435.000000 -431.000000,440.000000 -431.000000,443.000000 -430.000000C432.000000 -426.000000,427.000000 -415.000000,427.000000 -403.000000C427.000000 -386.000000,440.000000 -374.000000,456.000000 -374.000000C466.000000 -374.000000,485.000000 -381.000000,485.000000 -404.000000C485.000000 -421.000000,473.000000 -453.000000,434.000000 -453.000000C414.000000 -453.000000,370.000000 -447.000000,328.000000 -406.000000C286.000000 -439.000000,244.000000 -442.000000,222.000000 -442.000000C129.000000 -442.000000,60.000000 -373.000000,60.000000 -296.000000C60.000000 -252.000000,82.000000 -214.000000,107.000000 -193.000000C94.000000 -178.000000,76.000000 -145.000000,76.000000 -110.000000C76.000000 -79.000000,89.000000 -41.000000,120.000000 -21.000000C60.000000 -4.000000,28.000000 39.000000,28.000000 79.000000C28.000000 151.000000,127.000000 206.000000,249.000000 206.000000C367.000000 206.000000,471.000000 155.000000,471.000000 77.000000C471.000000 42.000000,457.000000 -9.000000,406.000000 -37.000000C353.000000 -65.000000,295.000000 -65.000000,234.000000 -65.000000C209.000000 -65.000000,166.000000 -65.000000,159.000000 -66.000000C127.000000 -70.000000,106.000000 -101.000000,106.000000 -133.000000M250.000000 183.000000C149.000000 183.000000,80.000000 132.000000,80.000000 79.000000C80.000000 33.000000,118.000000 -4.000000,162.000000 -7.000000L221.000000 -7.000000C307.000000 -7.000000,419.000000 -7.000000,419.000000 79.000000C419.000000 133.000000,348.000000 183.000000,250.000000 183.000000"></path>
    </g>
    <g transform="scale(0.009963,0.009963)" id="GLYPHcmr10_105">
      <path style="fill-rule: evenodd;" d="M177.000000 -442.000000L37.000000 -431.000000L37.000000 -400.000000C102.000000 -400.000000,111.000000 -394.000000,111.000000 -345.000000L111.000000 -76.000000C111.000000 -31.000000,100.000000 -31.000000,33.000000 -31.000000L33.000000 -0.000000C65.000000 -1.000000,119.000000 -3.000000,143.000000 -3.000000C178.000000 -3.000000,213.000000 -1.000000,247.000000 -0.000000L247.000000 -31.000000C181.000000 -31.000000,177.000000 -36.000000,177.000000 -75.000000M181.000000 -616.000000C181.000000 -648.000000,156.000000 -669.000000,128.000000 -669.000000C97.000000 -669.000000,75.000000 -642.000000,75.000000 -616.000000C75.000000 -589.000000,97.000000 -563.000000,128.000000 -563.000000C156.000000 -563.000000,181.000000 -584.000000,181.000000 -616.000000"></path>
    </g>
    <g transform="scale(0.009963,0.009963)" id="GLYPHcmr10_108">
      <path style="fill-rule: evenodd;" d="M177.000000 -694.000000L33.000000 -683.000000L33.000000 -652.000000C103.000000 -652.000000,111.000000 -645.000000,111.000000 -596.000000L111.000000 -76.000000C111.000000 -31.000000,100.000000 -31.000000,33.000000 -31.000000L33.000000 -0.000000C66.000000 -1.000000,119.000000 -3.000000,144.000000 -3.000000C169.000000 -3.000000,218.000000 -1.000000,255.000000 -0.000000L255.000000 -31.000000C188.000000 -31.000000,177.000000 -31.000000,177.000000 -76.000000"></path>
    </g>
    <g transform="scale(0.009963,0.009963)" id="GLYPHcmr10_109">
      <path style="fill-rule: evenodd;" d="M110.000000 -344.000000L110.000000 -76.000000C110.000000 -31.000000,99.000000 -31.000000,32.000000 -31.000000L32.000000 -0.000000C67.000000 -1.000000,118.000000 -3.000000,145.000000 -3.000000C171.000000 -3.000000,223.000000 -1.000000,257.000000 -0.000000L257.000000 -31.000000C190.000000 -31.000000,179.000000 -31.000000,179.000000 -76.000000L179.000000 -260.000000C179.000000 -364.000000,250.000000 -420.000000,314.000000 -420.000000C377.000000 -420.000000,388.000000 -366.000000,388.000000 -309.000000L388.000000 -76.000000C388.000000 -31.000000,377.000000 -31.000000,310.000000 -31.000000L310.000000 -0.000000C345.000000 -1.000000,396.000000 -3.000000,423.000000 -3.000000C449.000000 -3.000000,501.000000 -1.000000,535.000000 -0.000000L535.000000 -31.000000C468.000000 -31.000000,457.000000 -31.000000,457.000000 -76.000000L457.000000 -260.000000C457.000000 -364.000000,528.000000 -420.000000,592.000000 -420.000000C655.000000 -420.000000,666.000000 -366.000000,666.000000 -309.000000L666.000000 -76.000000C666.000000 -31.000000,655.000000 -31.000000,588.000000 -31.000000L588.000000 -0.000000C623.000000 -1.000000,674.000000 -3.000000,701.000000 -3.000000C727.000000 -3.000000,779.000000 -1.000000,813.000000 -0.000000L813.000000 -31.000000C761.000000 -31.000000,736.000000 -31.000000,735.000000 -61.000000L735.000000 -252.000000C735.000000 -338.000000,735.000000 -369.000000,704.000000 -405.000000C690.000000 -422.000000,657.000000 -442.000000,599.000000 -442.000000C515.000000 -442.000000,471.000000 -382.000000,454.000000 -344.000000C440.000000 -431.000000,366.000000 -442.000000,321.000000 -442.000000C248.000000 -442.000000,201.000000 -399.000000,173.000000 -337.000000L173.000000 -442.000000L32.000000 -431.000000L32.000000 -400.000000C102.000000 -400.000000,110.000000 -393.000000,110.000000 -344.000000"></path>
    </g>
    <g transform="scale(0.009963,0.009963)" id="GLYPHcmr10_110">
      <path style="fill-rule: evenodd;" d="M110.000000 -344.000000L110.000000 -76.000000C110.000000 -31.000000,99.000000 -31.000000,32.000000 -31.000000L32.000000 -0.000000C67.000000 -1.000000,118.000000 -3.000000,145.000000 -3.000000C171.000000 -3.000000,223.000000 -1.000000,257.000000 -0.000000L257.000000 -31.000000C190.000000 -31.000000,179.000000 -31.000000,179.000000 -76.000000L179.000000 -260.000000C179.000000 -364.000000,250.000000 -420.000000,314.000000 -420.000000C377.000000 -420.000000,388.000000 -366.000000,388.000000 -309.000000L388.000000 -76.000000C388.000000 -31.000000,377.000000 -31.000000,310.000000 -31.000000L310.000000 -0.000000C345.000000 -1.000000,396.000000 -3.000000,423.000000 -3.000000C449.000000 -3.000000,501.000000 -1.000000,535.000000 -0.000000L535.000000 -31.000000C483.000000 -31.000000,458.000000 -31.000000,457.000000 -61.000000L457.000000 -252.000000C457.000000 -338.000000,457.000000 -369.000000,426.000000 -405.000000C412.000000 -422.000000,379.000000 -442.000000,321.000000 -442.000000C248.000000 -442.000000,201.000000 -399.000000,173.000000 -337.000000L173.000000 -442.000000L32.000000 -431.000000L32.000000 -400.000000C102.000000 -400.000000,110.000000 -393.000000,110.000000 -344.000000"></path>
    </g>
    <g transform="scale(0.009963,0.009963)" id="GLYPHcmr10_111">
      <path style="fill-rule: evenodd;" d="M471.000000 -214.000000C471.000000 -342.000000,371.000000 -448.000000,250.000000 -448.000000C125.000000 -448.000000,28.000000 -339.000000,28.000000 -214.000000C28.000000 -85.000000,132.000000 11.000000,249.000000 11.000000C370.000000 11.000000,471.000000 -87.000000,471.000000 -214.000000M250.000000 -14.000000C207.000000 -14.000000,163.000000 -35.000000,136.000000 -81.000000C111.000000 -125.000000,111.000000 -186.000000,111.000000 -222.000000C111.000000 -261.000000,111.000000 -315.000000,135.000000 -359.000000C162.000000 -405.000000,209.000000 -426.000000,249.000000 -426.000000C293.000000 -426.000000,336.000000 -404.000000,362.000000 -361.000000C388.000000 -318.000000,388.000000 -260.000000,388.000000 -222.000000C388.000000 -186.000000,388.000000 -132.000000,366.000000 -88.000000C344.000000 -43.000000,300.000000 -14.000000,250.000000 -14.000000"></path>
    </g>
    <g transform="scale(0.009963,0.009963)" id="GLYPHcmr10_112">
      <path style="fill-rule: evenodd;" d="M172.000000 -376.000000L172.000000 -442.000000L28.000000 -431.000000L28.000000 -400.000000C99.000000 -400.000000,106.000000 -394.000000,106.000000 -350.000000L106.000000 118.000000C106.000000 163.000000,95.000000 163.000000,28.000000 163.000000L28.000000 194.000000C62.000000 193.000000,114.000000 191.000000,140.000000 191.000000C167.000000 191.000000,218.000000 193.000000,253.000000 194.000000L253.000000 163.000000C186.000000 163.000000,175.000000 163.000000,175.000000 118.000000L175.000000 -50.000000L175.000000 -59.000000C180.000000 -43.000000,222.000000 11.000000,298.000000 11.000000C417.000000 11.000000,521.000000 -87.000000,521.000000 -216.000000C521.000000 -343.000000,424.000000 -442.000000,312.000000 -442.000000C234.000000 -442.000000,192.000000 -398.000000,172.000000 -376.000000M175.000000 -114.000000L175.000000 -337.000000C204.000000 -388.000000,253.000000 -417.000000,304.000000 -417.000000C377.000000 -417.000000,438.000000 -329.000000,438.000000 -216.000000C438.000000 -95.000000,368.000000 -11.000000,294.000000 -11.000000C254.000000 -11.000000,216.000000 -31.000000,189.000000 -72.000000C175.000000 -93.000000,175.000000 -94.000000,175.000000 -114.000000"></path>
    </g>
    <g transform="scale(0.009963,0.009963)" id="GLYPHcmr10_114">
      <path style="fill-rule: evenodd;" d="M167.000000 -332.000000L167.000000 -442.000000L28.000000 -431.000000L28.000000 -400.000000C98.000000 -400.000000,106.000000 -393.000000,106.000000 -344.000000L106.000000 -76.000000C106.000000 -31.000000,95.000000 -31.000000,28.000000 -31.000000L28.000000 -0.000000C67.000000 -1.000000,114.000000 -3.000000,142.000000 -3.000000C182.000000 -3.000000,229.000000 -3.000000,269.000000 -0.000000L269.000000 -31.000000L248.000000 -31.000000C174.000000 -31.000000,172.000000 -42.000000,172.000000 -78.000000L172.000000 -232.000000C172.000000 -331.000000,214.000000 -420.000000,290.000000 -420.000000C297.000000 -420.000000,299.000000 -420.000000,301.000000 -419.000000C298.000000 -418.000000,278.000000 -406.000000,278.000000 -380.000000C278.000000 -352.000000,299.000000 -337.000000,321.000000 -337.000000C339.000000 -337.000000,364.000000 -349.000000,364.000000 -381.000000C364.000000 -413.000000,333.000000 -442.000000,290.000000 -442.000000C217.000000 -442.000000,181.000000 -375.000000,167.000000 -332.000000"></path>
    </g>
    <g transform="scale(0.009963,0.009963)" id="GLYPHcmr10_115">
      <path style="fill-rule: evenodd;" d="M208.000000 -194.000000C230.000000 -190.000000,312.000000 -174.000000,312.000000 -102.000000C312.000000 -51.000000,277.000000 -11.000000,199.000000 -11.000000C115.000000 -11.000000,79.000000 -68.000000,60.000000 -153.000000C57.000000 -166.000000,56.000000 -170.000000,46.000000 -170.000000C33.000000 -170.000000,33.000000 -163.000000,33.000000 -145.000000L33.000000 -13.000000C33.000000 4.000000,33.000000 11.000000,44.000000 11.000000C49.000000 11.000000,50.000000 10.000000,69.000000 -9.000000C71.000000 -11.000000,71.000000 -13.000000,89.000000 -32.000000C133.000000 10.000000,178.000000 11.000000,199.000000 11.000000C314.000000 11.000000,360.000000 -56.000000,360.000000 -128.000000C360.000000 -181.000000,330.000000 -211.000000,318.000000 -223.000000C285.000000 -255.000000,246.000000 -263.000000,204.000000 -271.000000C148.000000 -282.000000,81.000000 -295.000000,81.000000 -353.000000C81.000000 -388.000000,107.000000 -429.000000,193.000000 -429.000000C303.000000 -429.000000,308.000000 -339.000000,310.000000 -308.000000C311.000000 -299.000000,320.000000 -299.000000,322.000000 -299.000000C335.000000 -299.000000,335.000000 -304.000000,335.000000 -323.000000L335.000000 -424.000000C335.000000 -441.000000,335.000000 -448.000000,324.000000 -448.000000C319.000000 -448.000000,317.000000 -448.000000,304.000000 -436.000000C301.000000 -432.000000,291.000000 -423.000000,287.000000 -420.000000C249.000000 -448.000000,208.000000 -448.000000,193.000000 -448.000000C71.000000 -448.000000,33.000000 -381.000000,33.000000 -325.000000C33.000000 -290.000000,49.000000 -262.000000,76.000000 -240.000000C108.000000 -214.000000,136.000000 -208.000000,208.000000 -194.000000"></path>
    </g>
    <g transform="scale(0.009963,0.009963)" id="GLYPHcmr10_116">
      <path style="fill-rule: evenodd;" d="M173.000000 -400.000000L316.000000 -400.000000L316.000000 -431.000000L173.000000 -431.000000L173.000000 -615.000000L148.000000 -615.000000C147.000000 -533.000000,117.000000 -426.000000,19.000000 -422.000000L19.000000 -400.000000L104.000000 -400.000000L104.000000 -124.000000C104.000000 -1.000000,197.000000 11.000000,233.000000 11.000000C304.000000 11.000000,332.000000 -60.000000,332.000000 -124.000000L332.000000 -181.000000L307.000000 -181.000000L307.000000 -126.000000C307.000000 -52.000000,277.000000 -14.000000,240.000000 -14.000000C173.000000 -14.000000,173.000000 -105.000000,173.000000 -122.000000"></path>
    </g>
    <g transform="scale(0.009963,0.009963)" id="GLYPHcmr10_117">
      <path style="fill-rule: evenodd;" d="M391.000000 -79.000000L391.000000 11.000000L535.000000 -0.000000L535.000000 -31.000000C465.000000 -31.000000,457.000000 -38.000000,457.000000 -87.000000L457.000000 -442.000000L310.000000 -431.000000L310.000000 -400.000000C380.000000 -400.000000,388.000000 -393.000000,388.000000 -344.000000L388.000000 -166.000000C388.000000 -79.000000,340.000000 -11.000000,267.000000 -11.000000C183.000000 -11.000000,179.000000 -58.000000,179.000000 -110.000000L179.000000 -442.000000L32.000000 -431.000000L32.000000 -400.000000C110.000000 -400.000000,110.000000 -397.000000,110.000000 -308.000000L110.000000 -158.000000C110.000000 -80.000000,110.000000 11.000000,262.000000 11.000000C318.000000 11.000000,362.000000 -17.000000,391.000000 -79.000000"></path>
    </g>
    <g transform="scale(0.009963,0.009963)" id="GLYPHcmr10_122">
      <path style="fill-rule: evenodd;" d="M390.000000 -401.000000C399.000000 -412.000000,399.000000 -414.000000,399.000000 -418.000000C399.000000 -431.000000,391.000000 -431.000000,373.000000 -431.000000L53.000000 -431.000000L42.000000 -270.000000L67.000000 -270.000000C73.000000 -372.000000,92.000000 -409.000000,202.000000 -409.000000L316.000000 -409.000000L37.000000 -32.000000C28.000000 -21.000000,28.000000 -19.000000,28.000000 -14.000000C28.000000 -0.000000,35.000000 -0.000000,54.000000 -0.000000L384.000000 -0.000000L401.000000 -187.000000L376.000000 -187.000000C367.000000 -69.000000,346.000000 -25.000000,230.000000 -25.000000L112.000000 -25.000000"></path>
    </g>
    <g transform="scale(0.009963,0.009963)" id="GLYPHcmr10_126">
      <path style="fill-rule: evenodd;" d="M416.000000 -653.000000L400.000000 -668.000000C400.000000 -667.000000,362.000000 -620.000000,318.000000 -620.000000C295.000000 -620.000000,270.000000 -635.000000,253.000000 -645.000000C226.000000 -661.000000,208.000000 -668.000000,191.000000 -668.000000C153.000000 -668.000000,134.000000 -646.000000,83.000000 -590.000000L99.000000 -575.000000C99.000000 -576.000000,137.000000 -623.000000,181.000000 -623.000000C204.000000 -623.000000,229.000000 -608.000000,246.000000 -598.000000C273.000000 -582.000000,291.000000 -575.000000,308.000000 -575.000000C346.000000 -575.000000,365.000000 -597.000000,416.000000 -653.000000"></path>
    </g>
  </defs>
  <g transform="translate(49.000000 66.000000)" style="fill: rgb(0.000000%,0.000000%,0.000000%);">
    <use xlink:href="#GLYPHcmr10_80"></use>
    <use xlink:href="#GLYPHcmr10_114" x="6.805681"></use>
    <use xlink:href="#GLYPHcmr10_111" x="10.722427"></use>
  </g>
  <g transform="translate(64.940308 66.000000)" style="fill: rgb(0.000000%,0.000000%,0.000000%);">
    <use xlink:href="#GLYPHcmr10_99"></use>
    <use xlink:href="#GLYPHcmr10_101" x="4.444529"></use>
    <use xlink:href="#GLYPHcmr10_115" x="8.889057"></use>
    <use xlink:href="#GLYPHcmr10_97" x="12.833572"></use>
    <use xlink:href="#GLYPHcmr10_100" x="17.833667"></use>
    <use xlink:href="#GLYPHcmr10_111" x="23.389328"></use>
    <use xlink:href="#GLYPHcmr10_114" x="28.389423"></use>
  </g>
  <g transform="translate(100.446106 66.000000)" style="fill: rgb(0.000000%,0.000000%,0.000000%);">
    <use xlink:href="#GLYPHcmr10_100"></use>
    <use xlink:href="#GLYPHcmr10_105" x="5.555661"></use>
    <use xlink:href="#GLYPHcmr10_103" x="8.333491"></use>
    <use xlink:href="#GLYPHcmr10_105" x="13.333586"></use>
    <use xlink:href="#GLYPHcmr10_116" x="16.111417"></use>
    <use xlink:href="#GLYPHcmr10_97" x="20.000379"></use>
    <use xlink:href="#GLYPHcmr10_108" x="25.000474"></use>
  </g>
  <path d="M46.000000 70.937195L131.120117 70.937195L131.120117 56.081482L46.000000 56.081482Z" style="stroke:rgb(0.000000%,0.000000%,0.000000%); stroke-width: 0.500000;stroke-linecap: round;stroke-linejoin: round;stroke-miterlimit: 10.000000;fill: none;"></path>
  <g transform="translate(153.962616 66.000000)" style="fill: rgb(0.000000%,0.000000%,0.000000%);">
    <use xlink:href="#GLYPHcmr10_77"></use>
    <use xlink:href="#GLYPHcmr10_111" x="9.166833"></use>
  </g>
  <g transform="translate(168.353119 66.000000)" style="fill: rgb(0.000000%,0.000000%,0.000000%);">
    <use xlink:href="#GLYPHcmr10_100"></use>
    <use xlink:href="#GLYPHcmr10_117" x="5.555661"></use>
    <use xlink:href="#GLYPHcmr10_108" x="11.111322"></use>
    <use xlink:href="#GLYPHcmr10_97" x="13.889152"></use>
    <use xlink:href="#GLYPHcmr10_100" x="18.889247"></use>
    <use xlink:href="#GLYPHcmr10_111" x="24.444908"></use>
    <use xlink:href="#GLYPHcmr10_114" x="29.445003"></use>
  </g>
  <g transform="translate(204.910614 66.000000)" style="fill: rgb(0.000000%,0.000000%,0.000000%);">
    <use xlink:href="#GLYPHcmr10_112"></use>
  </g>
  <g transform="translate(210.722122 66.000000)" style="fill: rgb(0.000000%,0.000000%,0.000000%);">
    <use xlink:href="#GLYPHcmr10_111"></use>
    <use xlink:href="#GLYPHcmr10_114" x="5.000095"></use>
  </g>
  <g transform="translate(222.926422 66.000000)" style="fill: rgb(0.000000%,0.000000%,0.000000%);">
    <use xlink:href="#GLYPHcmr10_99"></use>
    <use xlink:href="#GLYPHcmr10_111" x="4.444529"></use>
    <use xlink:href="#GLYPHcmr10_110" x="9.444624"></use>
    <use xlink:href="#GLYPHcmr10_109" x="15.000284"></use>
  </g>
  <g transform="translate(245.895920 66.000000)" style="fill: rgb(0.000000%,0.000000%,0.000000%);">
    <use xlink:href="#GLYPHcmr10_117"></use>
    <use xlink:href="#GLYPHcmr10_116" x="5.555661"></use>
    <use xlink:href="#GLYPHcmr10_97" x="9.444624"></use>
    <use xlink:href="#GLYPHcmr10_99" x="14.444718"></use>
    <use xlink:href="#GLYPHcmr10_105" x="18.889247"></use>
    <use xlink:href="#GLYPHcmr10_19" x="21.667078"></use>
  </g>
  <g transform="translate(267.481613 66.000000)" style="fill: rgb(0.000000%,0.000000%,0.000000%);">
    <use xlink:href="#GLYPHcmr10_111"></use>
    <use xlink:href="#GLYPHcmr10_110" x="5.000095"></use>
  </g>
  <path d="M150.962601 70.937195L280.997833 70.937195L280.997833 56.081482L150.962601 56.081482Z" style="stroke:rgb(0.000000%,0.000000%,0.000000%); stroke-width: 0.500000;stroke-linecap: round;stroke-linejoin: round;stroke-miterlimit: 10.000000;fill: none;"></path>
  <g transform="translate(303.840332 66.000000)" style="fill: rgb(0.000000%,0.000000%,0.000000%);">
    <use xlink:href="#GLYPHcmr10_69"></use>
    <use xlink:href="#GLYPHcmr10_116" x="6.805681"></use>
    <use xlink:href="#GLYPHcmr10_97" x="10.694643"></use>
    <use xlink:href="#GLYPHcmr10_112" x="15.694738"></use>
    <use xlink:href="#GLYPHcmr10_97" x="21.250399"></use>
  </g>
  <g transform="translate(333.313232 66.000000)" style="fill: rgb(0.000000%,0.000000%,0.000000%);">
    <use xlink:href="#GLYPHcmr10_100"></use>
    <use xlink:href="#GLYPHcmr10_101" x="5.555661"></use>
  </g>
  <g transform="translate(346.596725 66.000000)" style="fill: rgb(0.000000%,0.000000%,0.000000%);">
    <use xlink:href="#GLYPHcmr10_112"></use>
  </g>
  <g transform="translate(352.408325 66.000000)" style="fill: rgb(0.000000%,0.000000%,0.000000%);">
    <use xlink:href="#GLYPHcmr10_111"></use>
    <use xlink:href="#GLYPHcmr10_116" x="5.000095"></use>
    <use xlink:href="#GLYPHcmr10_101" x="8.889057"></use>
    <use xlink:href="#GLYPHcmr10_110" x="13.333586"></use>
    <use xlink:href="#GLYPHcmr10_99" x="18.889247"></use>
    <use xlink:href="#GLYPHcmr10_105" x="23.333776"></use>
    <use xlink:href="#GLYPHcmr10_97" x="26.111606"></use>
  </g>
  <path d="M300.840317 70.937195L386.403229 70.937195L386.403229 56.081482L300.840317 56.081482Z" style="stroke:rgb(0.000000%,0.000000%,0.000000%); stroke-width: 0.500000;stroke-linecap: round;stroke-linejoin: round;stroke-miterlimit: 10.000000;fill: none;"></path>
  <g transform="translate(429.088196 66.913239)" style="fill: rgb(0.000000%,0.000000%,0.000000%);">
    <use xlink:href="#GLYPHcmr10_77"></use>
    <use xlink:href="#GLYPHcmr10_111" x="9.166833"></use>
    <use xlink:href="#GLYPHcmr10_116" x="14.166928"></use>
    <use xlink:href="#GLYPHcmr10_111" x="18.055890"></use>
    <use xlink:href="#GLYPHcmr10_114" x="23.055985"></use>
  </g>
  <path d="M426.088196 69.913239L458.959717 69.913239L458.959717 57.105438L426.088196 57.105438Z" style="stroke:rgb(0.000000%,0.000000%,0.000000%); stroke-width: 0.500000;stroke-linecap: round;stroke-linejoin: round;stroke-miterlimit: 10.000000;fill: none;"></path>
  <g transform="translate(428.368652 123.606049)" style="fill: rgb(0.000000%,0.000000%,0.000000%);">
    <use xlink:href="#GLYPHcmr10_83"></use>
    <use xlink:href="#GLYPHcmr10_101" x="5.555661"></use>
    <use xlink:href="#GLYPHcmr10_110" x="10.000190"></use>
    <use xlink:href="#GLYPHcmr10_115" x="15.555851"></use>
    <use xlink:href="#GLYPHcmr10_111" x="19.500365"></use>
    <use xlink:href="#GLYPHcmr10_114" x="24.500460"></use>
  </g>
  <path d="M425.368652 126.606049L459.679260 126.606049L459.679260 113.798248L425.368652 113.798248Z" style="stroke:rgb(0.000000%,0.000000%,0.000000%); stroke-width: 0.500000;stroke-linecap: round;stroke-linejoin: round;stroke-miterlimit: 10.000000;fill: none;"></path>
  <g transform="translate(290.584473 123.661407)" style="fill: rgb(0.000000%,0.000000%,0.000000%);">
    <use xlink:href="#GLYPHcmr10_65"></use>
    <use xlink:href="#GLYPHcmr10_99" x="7.500135"></use>
    <use xlink:href="#GLYPHcmr10_111" x="11.944663"></use>
    <use xlink:href="#GLYPHcmr10_110" x="16.944758"></use>
    <use xlink:href="#GLYPHcmr10_100" x="22.500419"></use>
    <use xlink:href="#GLYPHcmr10_105" x="28.056080"></use>
    <use xlink:href="#GLYPHcmr10_99" x="30.833910"></use>
    <use xlink:href="#GLYPHcmr10_105" x="35.278439"></use>
    <use xlink:href="#GLYPHcmr10_111" x="38.056270"></use>
    <use xlink:href="#GLYPHcmr10_110" x="43.056364"></use>
    <use xlink:href="#GLYPHcmr10_97" x="48.612025"></use>
    <use xlink:href="#GLYPHcmr10_100" x="53.612120"></use>
    <use xlink:href="#GLYPHcmr10_111" x="59.167781"></use>
    <use xlink:href="#GLYPHcmr10_114" x="64.167876"></use>
  </g>
  <g transform="translate(361.734467 123.661407)" style="fill: rgb(0.000000%,0.000000%,0.000000%);">
    <use xlink:href="#GLYPHcmr10_100"></use>
    <use xlink:href="#GLYPHcmr10_101" x="5.555661"></use>
  </g>
  <g transform="translate(375.017975 123.661407)" style="fill: rgb(0.000000%,0.000000%,0.000000%);">
    <use xlink:href="#GLYPHcmr10_115"></use>
    <use xlink:href="#GLYPHcmr10_101" x="3.944515"></use>
  </g>
  <g transform="translate(383.652267 123.661407)" style="fill: rgb(0.000000%,0.000000%,0.000000%);">
    <use xlink:href="#GLYPHcmr10_126"></use>
  </g>
  <g transform="translate(383.375580 123.661407)" style="fill: rgb(0.000000%,0.000000%,0.000000%);">
    <use xlink:href="#GLYPHcmr10_110"></use>
    <use xlink:href="#GLYPHcmr10_97" x="5.555661"></use>
    <use xlink:href="#GLYPHcmr10_108" x="10.555756"></use>
  </g>
  <path d="M287.584473 126.661407L399.659088 126.661407L399.659088 113.742889L287.584473 113.742889Z" style="stroke:rgb(0.000000%,0.000000%,0.000000%); stroke-width: 0.500000;stroke-linecap: round;stroke-linejoin: round;stroke-miterlimit: 10.000000;fill: none;"></path>
  <g transform="translate(204.841415 123.606049)" style="fill: rgb(0.000000%,0.000000%,0.000000%);">
    <use xlink:href="#GLYPHcmr10_65"></use>
    <use xlink:href="#GLYPHcmr10_68" x="7.500135"></use>
    <use xlink:href="#GLYPHcmr10_67" x="15.139157"></use>
  </g>
  <path d="M201.841415 126.606049L230.119034 126.606049L230.119034 113.798248L201.841415 113.798248Z" style="stroke:rgb(0.000000%,0.000000%,0.000000%); stroke-width: 0.500000;stroke-linecap: round;stroke-linejoin: round;stroke-miterlimit: 10.000000;fill: none;"></path>
  <g transform="translate(2.955383 66.913239)" style="fill: rgb(0.000000%,0.000000%,0.000000%);">
    <use xlink:href="#GLYPHcmr10_72"></use>
    <use xlink:href="#GLYPHcmr10_77" x="7.500135"></use>
    <use xlink:href="#GLYPHcmr10_73" x="16.666967"></use>
  </g>
  <path d="M-0.044617 69.913239L26.157516 69.913239L26.157516 57.105438L-0.044617 57.105438Z" style="stroke:rgb(0.000000%,0.000000%,0.000000%); stroke-width: 0.500000;stroke-linecap: round;stroke-linejoin: round;stroke-miterlimit: 10.000000;fill: none;"></path>
  <g transform="translate(58.367661 9.307190)" style="fill: rgb(0.000000%,0.000000%,0.000000%);">
    <use xlink:href="#GLYPHcmr10_84"></use>
  </g>
  <g transform="translate(64.732666 9.307190)" style="fill: rgb(0.000000%,0.000000%,0.000000%);">
    <use xlink:href="#GLYPHcmr10_101"></use>
    <use xlink:href="#GLYPHcmr10_109" x="4.444529"></use>
    <use xlink:href="#GLYPHcmr10_112" x="12.778020"></use>
  </g>
  <g transform="translate(83.274261 9.307190)" style="fill: rgb(0.000000%,0.000000%,0.000000%);">
    <use xlink:href="#GLYPHcmr10_111"></use>
    <use xlink:href="#GLYPHcmr10_114" x="5.000095"></use>
    <use xlink:href="#GLYPHcmr10_105" x="8.916841"></use>
    <use xlink:href="#GLYPHcmr10_122" x="11.694672"></use>
    <use xlink:href="#GLYPHcmr10_97" x="16.139200"></use>
    <use xlink:href="#GLYPHcmr10_100" x="21.139295"></use>
    <use xlink:href="#GLYPHcmr10_111" x="26.694956"></use>
    <use xlink:href="#GLYPHcmr10_114" x="31.695051"></use>
  </g>
  <path d="M55.367661 14.244385L121.752457 14.244385L121.752457 -0.611328L55.367661 -0.611328Z" style="stroke:rgb(0.000000%,0.000000%,0.000000%); stroke-width: 0.500000;stroke-linecap: round;stroke-linejoin: round;stroke-miterlimit: 10.000000;fill: none;"></path>
  <path d="M26.157516 63.509338L46.000000 63.509338" style="stroke:rgb(0.000000%,0.000000%,0.000000%); stroke-width: 0.500000;stroke-linecap: round;stroke-linejoin: round;stroke-miterlimit: 10.000000;fill: none;"></path>
  <path d="M42.304565 65.040070L46.000000 63.509338L42.304565 61.978607Z" style="stroke:rgb(0.000000%,0.000000%,0.000000%); stroke-width: 0.500000;fill: rgb(0.000000%,0.000000%,0.000000%);"></path>
  <path d="M131.120117 63.509338L150.962601 63.509338" style="stroke:rgb(0.000000%,0.000000%,0.000000%); stroke-width: 0.500000;stroke-linecap: round;stroke-linejoin: round;stroke-miterlimit: 10.000000;fill: none;"></path>
  <path d="M147.267166 65.040070L150.962601 63.509338L147.267166 61.978607Z" style="stroke:rgb(0.000000%,0.000000%,0.000000%); stroke-width: 0.500000;fill: rgb(0.000000%,0.000000%,0.000000%);"></path>
  <path d="M280.997833 63.509338L300.840317 63.509338" style="stroke:rgb(0.000000%,0.000000%,0.000000%); stroke-width: 0.500000;stroke-linecap: round;stroke-linejoin: round;stroke-miterlimit: 10.000000;fill: none;"></path>
  <path d="M297.144882 65.040070L300.840317 63.509338L297.144882 61.978607Z" style="stroke:rgb(0.000000%,0.000000%,0.000000%); stroke-width: 0.500000;fill: rgb(0.000000%,0.000000%,0.000000%);"></path>
  <path d="M386.403229 63.509338L426.088196 63.509338" style="stroke:rgb(0.000000%,0.000000%,0.000000%); stroke-width: 0.500000;stroke-linecap: round;stroke-linejoin: round;stroke-miterlimit: 10.000000;fill: none;"></path>
  <path d="M422.392502 65.040176L426.088196 63.509338L422.392502 61.978500Z" style="stroke:rgb(0.000000%,0.000000%,0.000000%); stroke-width: 0.500000;fill: rgb(0.000000%,0.000000%,0.000000%);"></path>
  <path d="M442.523956 69.913239L442.523956 113.798248" style="stroke:rgb(0.000000%,0.000000%,0.000000%); stroke-width: 0.500000;stroke-linecap: round;stroke-linejoin: round;stroke-miterlimit: 10.000000;fill: none;"></path>
  <path d="M440.993301 110.103027L442.523956 113.798248L444.054611 110.103027Z" style="stroke:rgb(0.000000%,0.000000%,0.000000%); stroke-width: 0.500000;fill: rgb(0.000000%,0.000000%,0.000000%);"></path>
  <path d="M425.368652 120.202148L399.659088 120.202148" style="stroke:rgb(0.000000%,0.000000%,0.000000%); stroke-width: 0.500000;stroke-linecap: round;stroke-linejoin: round;stroke-miterlimit: 10.000000;fill: none;"></path>
  <path d="M403.354446 118.671448L399.659088 120.202148L403.354446 121.732849Z" style="stroke:rgb(0.000000%,0.000000%,0.000000%); stroke-width: 0.500000;fill: rgb(0.000000%,0.000000%,0.000000%);"></path>
  <path d="M287.584473 120.202148L230.119034 120.202148" style="stroke:rgb(0.000000%,0.000000%,0.000000%); stroke-width: 0.500000;stroke-linecap: round;stroke-linejoin: round;stroke-miterlimit: 10.000000;fill: none;"></path>
  <path d="M233.814728 118.671310L230.119034 120.202148L233.814728 121.732986Z" style="stroke:rgb(0.000000%,0.000000%,0.000000%); stroke-width: 0.500000;fill: rgb(0.000000%,0.000000%,0.000000%);"></path>
  <path d="M201.841415 120.202148L88.560059 120.202148L88.560059 70.937195" style="stroke:rgb(0.000000%,0.000000%,0.000000%); stroke-width: 0.500000;stroke-linecap: round;stroke-linejoin: round;stroke-miterlimit: 10.000000;fill: none;"></path>
  <path d="M90.090790 74.632629L88.560059 70.937195L87.029327 74.632629Z" style="stroke:rgb(0.000000%,0.000000%,0.000000%); stroke-width: 0.500000;fill: rgb(0.000000%,0.000000%,0.000000%);"></path>
  <path d="M88.560059 14.244385L88.560059 56.081482" style="stroke:rgb(0.000000%,0.000000%,0.000000%); stroke-width: 0.500000;stroke-linecap: round;stroke-linejoin: round;stroke-miterlimit: 10.000000;fill: none;"></path>
  <path d="M87.029251 52.385880L88.560059 56.081482L90.090866 52.385880Z" style="stroke:rgb(0.000000%,0.000000%,0.000000%); stroke-width: 0.500000;fill: rgb(0.000000%,0.000000%,0.000000%);"></path>
</svg>
